/* XPM */
static char *appli_48x48[] = {
/* columns rows colors chars-per-pixel */
"48 48 256 2",
"   c #3F3F3E",
".  c #607104",
"X  c #767E18",
"o  c #4C4C49",
"O  c #55574D",
"+  c #565656",
"@  c gray36",
"#  c #5C5E53",
"$  c #5C614A",
"%  c #6E764C",
"&  c #6E7551",
"*  c gray39",
"=  c #6B6C64",
"-  c #6A6A6A",
";  c #6F7168",
":  c #75776B",
">  c #747474",
",  c gray48",
"<  c #3A0FA9",
"1  c #370AA3",
"2  c #3B13AD",
"3  c #3D16B1",
"4  c #3E19B4",
"5  c #3708D0",
"6  c #390DD3",
"7  c #3F10CF",
"8  c #4319A9",
"9  c #411EBA",
"0  c #401CB7",
"q  c #4F28AE",
"w  c #4322BE",
"e  c #4B29B3",
"r  c #5C35B2",
"t  c #5534A6",
"y  c #411FDD",
"u  c #4629C6",
"i  c #472CC9",
"p  c #4A2ECC",
"a  c #4425C2",
"s  c #4822D9",
"d  c #4931CE",
"f  c #4B35D3",
"g  c #4D39D7",
"h  c #4E3CDA",
"j  c #532AD6",
"k  c #5439DB",
"l  c #4528E2",
"z  c #4C36E9",
"x  c #523DEA",
"c  c #6F4AB3",
"v  c #7353BC",
"b  c #7E7C85",
"n  c #7C65B1",
"m  c #5141DF",
"M  c #5C4BD5",
"N  c #5244E3",
"B  c #5549E7",
"V  c #554BEB",
"C  c #554BF5",
"Z  c #5750EF",
"A  c #5954F4",
"S  c #5954FA",
"D  c #5C5BFC",
"F  c #7350DC",
"G  c #6F45FE",
"H  c #6E50E2",
"J  c #7149FE",
"K  c #7659FA",
"L  c #6E61F4",
"P  c #7D66FB",
"I  c #7E74F8",
"U  c #7F9718",
"Y  c #7A8B37",
"T  c #78834C",
"R  c #7A8357",
"E  c #7E826D",
"W  c #7E8171",
"Q  c #817F1F",
"!  c #B97E0C",
"~  c #8F666F",
"^  c #8060DF",
"/  c #8D71C7",
"(  c #9779DE",
")  c #8678FA",
"_  c #889F2C",
"`  c #86993A",
"'  c #92902F",
"]  c #8EAD13",
"[  c #8FB204",
"{  c #91B406",
"}  c #96BB02",
"|  c #9ABE0C",
" . c #93B30F",
".. c #99BB11",
"X. c #9AB91C",
"o. c #95B31E",
"O. c #8CA626",
"+. c #94AF2B",
"@. c #97AF38",
"#. c #90A636",
"$. c #9EBD23",
"%. c #9AB62B",
"&. c #B39713",
"*. c #A0BF27",
"=. c #A1BA3C",
"-. c #8B9952",
";. c #929F5F",
":. c #868C6D",
">. c #888C79",
",. c #8A926A",
"<. c #8E9476",
"1. c #959D6F",
"2. c #91A04E",
"3. c #94A356",
"4. c #9EAD62",
"5. c #9BA37C",
"6. c #99A374",
"7. c #A7887B",
"8. c #A2B74B",
"9. c #A8BD56",
"0. c #A4AB69",
"q. c #A3B16A",
"w. c #A5B07B",
"e. c #9DC402",
"r. c #9EC30A",
"t. c #9EC114",
"y. c #A0C60B",
"u. c #A3CC01",
"i. c #A4CB0B",
"p. c #A3C41B",
"a. c #A6CA14",
"s. c #A6C91C",
"d. c #A7CB17",
"f. c #A7D000",
"g. c #AAD401",
"h. c #AED902",
"j. c #ABD30A",
"k. c #ACD215",
"l. c #B1DD00",
"z. c #B2DC0B",
"x. c #B4DA19",
"c. c #A4C325",
"v. c #A5C42B",
"b. c #A7C824",
"n. c #ABCC23",
"m. c #ABCC2A",
"M. c #A8C72D",
"N. c #ADCC34",
"B. c #AECB3B",
"V. c #A8C533",
"C. c #AFD125",
"Z. c #B1CE3C",
"A. c #B5D926",
"S. c #B3D13B",
"D. c #B9DA34",
"F. c #B5D535",
"G. c #B5E200",
"H. c #B6E00D",
"J. c #B8E700",
"K. c #B9E40C",
"L. c #BCEB00",
"P. c #BEEA0E",
"I. c #BAE512",
"U. c #BCE41B",
"Y. c #BFE916",
"T. c #BBE416",
"R. c #BEE32F",
"E. c #BAE026",
"W. c #BEE133",
"Q. c #AAC344",
"!. c #ABC153",
"~. c #B1CD44",
"^. c #B3CD4B",
"/. c #B4CB53",
"(. c #B9CC6B",
"). c #CC930B",
"_. c #C18D27",
"`. c #D9A418",
"'. c #D7B02A",
"]. c #E5B624",
"[. c #C4A56F",
"{. c #DEBD60",
"}. c #C1EF08",
"|. c #C1ED10",
" X c #C3EC1B",
".X c #C0F000",
"XX c #C2F108",
"oX c #C3F012",
"OX c #C0E723",
"+X c #C0E62A",
"@X c #C5ED23",
"#X c #C6EC2B",
"$X c #C1E531",
"%X c #C5EA31",
"&X c #C7F028",
"*X c #C6F022",
"=X c #EEC12D",
"-X c #FDD63C",
";X c #C3D679",
":X c #838383",
">X c gray55",
",X c #998096",
"<X c #969987",
"1X c #939393",
"2X c #9B9B9B",
"3X c #9A9B92",
"4X c #9E93B9",
"5X c #9DA18E",
"6X c #A1A39B",
"7X c #BFAB88",
"8X c #A4A4A4",
"9X c #ACACAC",
"0X c #ABADA6",
"qX c #AFB1A5",
"wX c gray71",
"eX c #BBBBBB",
"rX c #9980E6",
"tX c #A48DFB",
"yX c #A894E7",
"uX c #B2A0D9",
"iX c #BBB2CE",
"pX c #C3AA8B",
"aX c #C4AE94",
"sX c #C0AAA5",
"dX c #C5B2B1",
"fX c #C0B0DF",
"gX c #C0B0F0",
"hX c #CBBDF8",
"jX c #D0DE97",
"kX c #C7D788",
"lX c #D2DCA7",
"zX c #D4E1A3",
"xX c #DCE5B8",
"cX c gray77",
"vX c gray80",
"bX c #CCC9C1",
"nX c #D0C6C9",
"mX c gray83",
"MX c gainsboro",
"NX c #DACEFA",
"BX c #D9D0EC",
"VX c #E1DEE7",
"CX c #E5EBCB",
"ZX c #E1E8C3",
"AX c #E8EDD2",
"SX c gray89",
"DX c #ECECEC",
"FX c #EBE7FF",
"GX c #EFF3E1",
"HX c #F2EFFC",
"JX c #F7F8EF",
"KX c #F0F3E1",
"LX c #F3F3F3",
"PX c #F7F9F0",
"IX c #FEFEFE",
"UX c #F3F0F9",
/* pixels */
"IXIXIXIXIXIXIXIXIXIXIXIXIXIXIXIXIXIXIXIXIXIXIXIXIXIXIXIXIXIXIXIXIXIXIXIXIXIXIXIXIXIXIXIXIXIXIXIX",
"IXIXIXIXIXIXIXIXIXIXIXIXIXIXIXIXIXIXIXIXIXIXIXIXIXIXIXIXIXIXIXIXIXIXIXIXIXIXIXFX) ) tXHXIXIXIXIX",
"IXIXIXIXIXIXIXIXIXIXIXIXIXIXIXIXIXIXIXIXIXIXIXIXIXIXIXIXIXIXIXIXIXIXIXIXIXIXgXL ) ) P K hXIXIXIX",
"IXIXIXIXIXIXIXIXIXIXIXIXIXIXIXIXIXIXIXIXIXIXIXIXIXIXIXIXIXIXIXIXIXIXIXIXIXHXx D I ) P K J NXIXIX",
"IXIXIXIXIXIXIXIXIXIXIXIXIXIXIXIXIXIXIXIXIXIXIXIXIXIXIXIXIXIXIXIXIXIXIXIXIXH S A V K P K G tXIXIX",
"IXIXIXIXIXIXIXIXIXIXIXIXIXIXIXIXIXIXIXIXIXIXIXIXIXIXIXIXIXIXIXIXIXIXIXIXrXN A V m d p k s ( IXIX",
"IXIXIXIXIXIXIXIXIXIXIXIXIXIXIXIXIXIXIXIXIXIXIXIXIXIXIXIXIXIXIXIXIXIXIXNXl D Z N g u 9 2 8 UXIXIX",
"IXIXIXIXIXIXIXIXIXIXIXIXIXIXIXIXIXIXLXLXLXDXDXLXLXDXLXLXIXIXIXIXIXIXHXj S A B h p w 3 1 fXIXIXIX",
"IXIXIXIXIXIXIXIXIXIXIXIXIXIXIXIXIXeX9XwXwXwXwXwXwXwXcXDXLXLXIXIXIXIXF z D V m d u 0 < / IXIXIXIX",
"IXIXIXIXIXIXIXIXIXIXIXIXIXIXIXIXLXwXIXIXIXIXIXIXIXIXSXcXDXLXIXIXIXyXs D A N g i 9 2 r IXIXIXIXIX",
"IXIXIXIXIXIXIXIXIXIXIXIXIXIXIXIXLXwXIXIXIXIXIXIXIXIXSXcXSXDXLXIXNX7 C A B h d w 3 8 BXIXIXIXIXIX",
"IXIXIXIXIXIXIXIXIXIXIXIXIXIXIXLXLXwXIXIXIXIXIXIXIXIXMXwXMXDXLXHXs z D V x d a 0 2 uXIXIXIXIXIXIX",
"IXIXIXIXIXIXIXIXIXIXIXIXIXIXIXIXLXwXIXIXIXIXIXIXIXIXmX8XvXSXLX^ y D A N g i 9 2 v IXIXIXIXIXIXIX",
"IXIXIXIXIXIXIXIXIXIXIXIXIXIXIXIXLXwXIXIXIXIXIXIXIXIXmX1XcXSXyX5 C A V h d a 4 q VXDXDXLXLXIXIXIX",
"IXIXIXIXIXIXIXIXIXIXIXIXIXIXIXLXLXwXIXIXIXIXIXIXIXIXvX:XeXnXy l D Z N f u 0 2 iXMXSXSXDXLXIXIXIX",
"IXIXIXIXIXIXIXIXIXLXLXIXIXIXIXIXLXqXCXCXCXPXIXIXIXIXvX, wXdXc D A N g i w 2 n vXmXMXSXDXLXLXIXIX",
"IXIXIXIXIXIXPXvXwXSXDXDXLXLXLXLXDX6.^.~.~.~.;XxXIXIXvX> 9XsX{.S V h f a 4 t wXcXvXMXSXDXDXIXIXIX",
"IXIXIXIXIXIXDX6.Q.q.5XwXMXDXDXDXSX1.~.~.Z.B.V.V./.AXvX; 0XpX-X[.M f u 9 8 b qXeXcXMXMXDXLXIXIXIX",
"IXIXIXIXIXLXvX!.b.b.M.Q.q.5XwXmXMX5.~.S.S.Z.N.M.v.c.w.* 1X7X-X=X'.~ e 2 4X>X9XwXcXMXSXLXLXIXIXIX",
"IXIXIXIXIXLX8Xb.p.k.C.A.m.N.B.q.<X<.Z.F.N.v.*.*.*.*._ O 2X' '.].`.).! ,XcX9X8XiXmXSXLXLXIXIXIXIX",
"IXIXIXIXIXSX5.s.k.x.A.A.A.A.D.D.D.S.F.M.*.=.!.!.X.X.X.kXkXU . &._.7.bXmXMXBX2XvXAXDXIXIXIXIXIXIX",
"IXIXIXIXIXcX9.d.z.U.U.OXR.R.R.$X$XW.D.M.lXIXIXIXIXZX(.*.t.. X aXmXMXSXDXLXIX6XcXBXUXPXIXIXIXIXIX",
"IXIXIXIXLX0Xa.i.z.I.Y.@X@X#X#X%X%X%XR.A.b.B.;XZXIXIXIXJXkX0.IXIXLXIXIXIXIXIXcX9XMXDXLXIXIXIXIXIX",
"IXIXIXIXDX5.r.u.h.H.I.Y. X@X&X&X#X#X+XE.A.C.s.s.Z.jXJXIXIXKXKXIXIXIXIXIXIXIXLX>XvXSXLXIXIXIXIXIX",
"IXIXIXIXvX8.r.e.f.h.z.K.I.Y. X X*X*X@XOXE.x.x.k.d.a.s.zXIXIXIXIXIXIXIXIXIXIXIX2XcXSXDXIXIXIXIXIX",
"IXIXIXLXmX3.$.e.e.u.g.h.z.I.K.Y. X X X X XT.T.I.z.j.i.i.~.JXIXIXIXIXIXIXIXIXcX>XeXSXDXIXIXIXIXIX",
"IXIXIXIXLXSXwX5X-.%.e.e.u.j.z.K.P.|.oXoXoX|.P.P.K.z.g.u.e.t.AXIXIXIXIXeX>X* :X0XvXSXLXIXIXIXIXIX",
"IXIXIXIXLXDXSXMXcX8X>.-.+.e.u.h.J.L.}.XXXXXXXXL.L.J.l.g.u.e.| JXeX:X+ - , 1X9XcXMXDXLXIXIXIXIXIX",
"IXIXIXIXIXLXDXDXSXmXcX9X:X; R p.G.L.L..X.X.X.X.XL.L.G.l.u.Y $   + - , >X8XeXvXSXDXLXIXIXIXIXIXIX",
"IXIXIXIXIXPXLXLXDXDXSXmXcX0X> b.G.J.L..X.X.X.X.X.XL.L.l.f.% o # - :X2XwXmXMXDXDXLXIXIXIXIXIXIXIX",
"IXIXIXIXIXIXIXIXIXLXLXDXMX9X3.j.G.L.L..X.X.X.X.X.XL.L.G.g.e.O @ , 2XeXMXDXLXIXIXIXIXIXIXIXIXIXIX",
"IXIXIXIXIXIXIXIXIXIXLXLXMX,.d.u.G.L.L..X.X.XL.L..XL.L.G.h.u.o.+ :X9XmXDXLXIXIXIXIXIXIXIXIXIXIXIX",
"IXIXIXIXIXIXIXIXIXIXIXDX3Xv.r.g.G.L.L.L.L.L.L.J.L.L.L.G.G.g.e.` , wXmXLXIXIXIXIXIXIXIXIXIXIXIXIX",
"IXIXIXIXIXIXIXIXIXIXLXwXQ.a.g.l.G.L.L.J.G.l.G.G.G.G.L.L.G.h.f.e.R 0XmXDXLXIXIXIXIXIXIXIXIXIXIXIX",
"IXIXIXIXIXIXIXIXIXLXmXq.p.u.h.G.L.L.G.G.h.j.u.f.h.G.G.L.G.G.h.u.| W cXSXLXIXIXIXIXIXIXIXIXIXIXIX",
"IXIXIXIXIXIXIXIXIXDX<.p.r.g.G.L.L.G.G.h.a.` o e.u.h.G.L.L.G.G.g.u.+.3XmXDXLXIXIXIXIXIXIXIXIXIXIX",
"IXIXIXIXIXIXIXIXLX6Xc.r.f.l.G.L.L.G.h.i.] o o T e.u.h.G.L.L.G.l.f.e.-.wXSXDXLXIXIXIXIXIXIXIXIXIX",
"IXIXIXIXIXIXIXLXeX8.r.u.g.G.G.G.G.h.i.{ # + * + #.e.g.l.G.G.G.l.g.u.e.:.vXSXLXIXIXIXIXIXIXIXIXIX",
"IXIXIXIXIXIXIXDX5.t.e.u.g.h.G.G.h.g.| T + - , :X= r.u.g.h.G.G.h.g.u.e. .6XMXDXLXIXIXIXIXIXIXIXIX",
"IXIXIXIXIXIXIXDX0X4.r.e.f.h.h.h.g.r._ + > >X8XwX9X: e.u.g.h.h.g.i.} ] E wXMXDXIXIXIXIXIXIXIXIXIX",
"IXIXIXIXIXIXIXLXDXcX5...e.u.u.u.y.] # > 1X9XvXmXmXwX3.e.u.f.g.i.{ ` * 2XcXMXDXLXIXIXIXIXIXIXIXIX",
"IXIXIXIXIXIXIXLXLXSXMX6X@.e.e.r.{ & > 1XwXmXSXLXDXSX8X%.e.u.r.{ % * >XwXvXSXLXIXIXIXIXIXIXIXIXIX",
"IXIXIXIXIXIXIXIXLXLXDXMXwX3.} { ` > 1XwXmXDXUXIXIXDXMX3X..} O.= , 1X9XcXSXLXIXIXIXIXIXIXIXIXIXIX",
"IXIXIXIXIXIXIXIXIXLXLXDXBXcX>.O.>.8XwXmXSXLXIXIXIXLXDXmX,.2.>X8X0XwXvXSXLXIXIXIXIXIXIXIXIXIXIXIX",
"IXIXIXIXIXIXIXIXIXIXPXLXDXSXmXwXcXcXmXDXLXIXIXIXIXIXLXDXmXcXcXcXvXMXDXLXIXIXIXIXIXIXIXIXIXIXIXIX",
"IXIXIXIXIXIXIXIXIXIXIXIXPXLXDXSXMXSXDXLXIXIXIXIXIXIXLXLXDXSXSXSXSXLXLXIXIXIXIXIXIXIXIXIXIXIXIXIX",
"IXIXIXIXIXIXIXIXIXIXIXIXIXLXLXLXDXLXLXIXIXIXIXIXIXIXIXIXLXDXDXLXLXIXIXIXIXIXIXIXIXIXIXIXIXIXIXIX",
"IXIXIXIXIXIXIXIXIXIXIXIXIXIXIXLXLXIXIXIXIXIXIXIXIXIXIXIXIXIXIXIXIXIXIXIXIXIXIXIXIXIXIXIXIXIXIXIX"
};
